<svg width="352" height="512" viewBox="0 0 352 512" fill="none" xmlns="http://www.w3.org/2000/svg">
<path d="M176.424 0C96.6048 0 44.9058 32.703 4.31677 91.026C-3.04623 101.606 -0.776227 116.112 9.49477 123.9L52.6328 156.609C63.0058 164.474 77.7648 162.635 85.8858 152.461C110.935 121.08 129.516 103.012 168.643 103.012C199.407 103.012 237.459 122.811 237.459 152.643C237.459 175.195 218.842 186.777 188.466 203.807C153.043 223.667 106.167 248.383 106.167 310.212V320C106.167 333.255 116.912 344 130.167 344H202.638C215.893 344 226.638 333.255 226.638 320V314.227C226.638 271.367 351.906 269.582 351.906 153.6C351.907 66.256 261.305 0 176.424 0ZM166.403 373.459C128.207 373.459 97.1318 404.534 97.1318 442.73C97.1318 480.925 128.207 512 166.403 512C204.599 512 235.674 480.925 235.674 442.729C235.674 404.533 204.599 373.459 166.403 373.459Z" fill="#6C63FF"/>
</svg>
