<svg width="512" height="512" viewBox="0 0 512 512" fill="none" xmlns="http://www.w3.org/2000/svg">
<path d="M510.28 445.86L437.25 153.73C433.45 138.54 420.81 128.01 406.38 128.01H346.13C349.7 117.96 352.01 107.29 352.01 96.01C352.01 42.99 309.03 0.0100098 256.01 0.0100098C202.99 0.0100098 160.01 42.99 160.01 96.01C160.01 107.29 162.31 117.96 165.89 128.01H105.64C91.21 128.01 78.56 138.55 74.77 153.73L1.72002 445.86C-6.60998 479.17 16.38 512 48.03 512H463.98C495.62 512 518.61 479.17 510.28 445.86V445.86ZM256 128C238.36 128 224 113.64 224 96C224 78.36 238.36 64 256 64C273.64 64 288 78.36 288 96C288 113.64 273.64 128 256 128Z" fill="#6C63FF"/>
</svg>
